<?xml version="1.0" encoding="UTF-8" standalone="no"?>
<!-- Created with Inkscape (http://www.inkscape.org/) -->

<svg
   width="169.33333mm"
   height="169.33333mm"
   viewBox="0 0 169.33333 169.33333"
   version="1.1"
   id="svg1150"
   sodipodi:docname="drawing.svg"
   inkscape:version="1.1.1 (3bf5ae0d25, 2021-09-20)"
   xmlns:inkscape="http://www.inkscape.org/namespaces/inkscape"
   xmlns:sodipodi="http://sodipodi.sourceforge.net/DTD/sodipodi-0.dtd"
   xmlns:xlink="http://www.w3.org/1999/xlink"
   xmlns="http://www.w3.org/2000/svg"
   xmlns:svg="http://www.w3.org/2000/svg">
  <sodipodi:namedview
     id="namedview1152"
     pagecolor="#505050"
     bordercolor="#ffffff"
     borderopacity="1"
     inkscape:pageshadow="0"
     inkscape:pageopacity="0"
     inkscape:pagecheckerboard="1"
     inkscape:document-units="mm"
     showgrid="false"
     inkscape:zoom="1.0192238"
     inkscape:cx="134.90658"
     inkscape:cy="335.0589"
     inkscape:window-width="1920"
     inkscape:window-height="1017"
     inkscape:window-x="-8"
     inkscape:window-y="-8"
     inkscape:window-maximized="1"
     inkscape:current-layer="layer1"
     fit-margin-top="0"
     fit-margin-left="0"
     fit-margin-right="0"
     fit-margin-bottom="0" />
  <defs
     id="defs1147" />
  <g
     inkscape:label="Layer 1"
     inkscape:groupmode="layer"
     id="layer1"
     transform="translate(-62.548416,-57.775856)">
    <image
       width="169.33333"
       height="169.33333"
       preserveAspectRatio="none"
       style="image-rendering:optimizeQuality"
       xlink:href="file:///D:/Resources/Java/resources/Logo/New%20Logo/Logo/LogoWhite.png"
       id="image1181"
       x="62.548416"
       y="57.775856" />
    <g
       id="g2495">
      <path
         id="path2559"
         style="fill:#7C1F2F;stroke-width:0.0846667"
         d="M 201.67621,163.94762 H 198.945 l 0.0219,-4.7625 0.0219,-4.7625 1.45181,-0.0231 1.45181,-0.0231 0.055,-0.21923 0.055,-0.21923 -0.0103,-4.16031 -0.0103,-4.16031 0.17609,-0.67733 0.17609,-0.67733 0.36748,-0.762 0.36748,-0.762 0.53404,-0.70734 0.53403,-0.70734 0.55853,-0.46284 0.55853,-0.46285 0.52917,-0.2976 0.52916,-0.29761 -8.4e-4,-0.0985 -8.5e-4,-0.0985 -0.35918,-0.20367 -0.35918,-0.20368 -0.46645,-0.35709 -0.46645,-0.35709 -0.56331,-0.59713 -0.5633,-0.59713 -0.35262,-0.51926 -0.35262,-0.51926 -0.28712,-0.60884 -0.28712,-0.60885 -0.13618,-0.508 -0.13618,-0.508 0.0111,-4.15795 0.0111,-4.15794 -0.0556,-0.22159 -0.0556,-0.22159 -1.45181,-0.0231 -1.45142,-0.0229 -0.0219,-4.77003 -0.0219,-4.77003 3.32387,0.0391 3.32388,0.0391 0.80433,0.17171 0.80433,0.1717 0.54429,0.18374 0.54429,0.18374 0.34471,0.17366 0.34471,0.17365 0.53241,0.37728 0.5324,0.37727 0.34305,0.43398 0.34304,0.43399 0.29747,0.59068 0.29746,0.59068 0.19678,0.77574 0.19678,0.77575 0.0908,0.81433 0.0908,0.81433 8.5e-4,4.42717 8.5e-4,4.42717 0.0798,0.69422 0.0798,0.69422 0.18502,0.4301 0.18503,0.43011 0.41436,0.37254 0.41435,0.37254 0.44199,0.14732 0.44198,0.14732 0.508,0.0491 0.508,0.0491 v 4.78366 4.78367 l -0.58823,0.065 -0.58824,0.0649 -0.43163,0.19761 -0.43163,0.1976 -0.31021,0.27237 -0.31022,0.27238 -0.22106,0.46727 -0.22106,0.46728 -0.0772,0.73346 -0.0772,0.73345 -0.002,4.318 -0.002,4.318 -0.1274,0.84667 -0.12739,0.84667 -0.17155,0.62611 -0.17155,0.62612 -0.28042,0.60154 -0.28041,0.60156 -0.3979,0.52507 -0.39791,0.52507 -0.52507,0.39719 -0.52507,0.3972 -0.67733,0.32649 -0.67733,0.32649 -0.80434,0.20316 -0.80433,0.20316 -0.762,0.093 -0.762,0.093 h -2.7312 z m -109.367461,-0.45248 -3.471334,0.013 -0.64169,-0.10858 -0.641691,-0.10857 -0.501309,-0.14315 -0.501309,-0.14315 -0.677334,-0.32768 -0.677333,-0.32767 -0.400125,-0.33442 -0.400126,-0.33442 -0.380339,-0.44557 -0.380338,-0.44559 -0.336817,-0.6474 -0.336817,-0.6474 -0.216286,-0.74636 -0.216286,-0.74636 -0.126933,-0.9683 -0.126933,-0.9683 -6.77e-4,-3.99616 -6.78e-4,-3.99617 -0.07993,-0.69508 -0.07993,-0.69508 -0.219184,-0.46332 -0.219184,-0.46331 -0.310216,-0.27238 -0.310217,-0.27237 -0.445276,-0.20385 -0.445276,-0.20386 -0.532254,-0.0587 -0.532254,-0.0587 v -4.78367 -4.78367 l 0.467548,-0.0503 0.467549,-0.0503 0.435889,-0.14478 0.435888,-0.14477 0.382976,-0.33711 0.382975,-0.33711 0.216113,-0.44172 0.216114,-0.44172 0.08236,-0.63477 0.08236,-0.63477 0.0026,-4.23555 0.0026,-4.23556 0.08639,-0.71744 0.08639,-0.71745 0.126493,-0.57239 0.126492,-0.5724 0.247194,-0.67733 0.247195,-0.67733 0.314039,-0.51696 0.31404,-0.51697 0.505471,-0.54035 0.50547,-0.54035 0.568174,-0.37772 0.568175,-0.37772 0.654991,-0.26227 0.654992,-0.26227 0.778079,-0.18278 0.77808,-0.18278 3.471334,-0.003 3.471333,-0.003 0.0219,4.64712 0.0219,4.64711 -0.09576,0.11539 -0.09576,0.11538 h -1.631575 -1.631574 l -0.05139,0.13393 -0.05139,0.13392 v 4.06065 4.06064 l -0.133094,0.6526 -0.133095,0.6526 -0.30025,0.762 -0.300251,0.762 -0.392155,0.67135 -0.392155,0.67135 -0.677333,0.69213 -0.677333,0.69214 -0.501528,0.28926 -0.501529,0.28927 -0.02686,0.0829 -0.02686,0.0829 0.55955,0.29633 0.55955,0.29634 0.543443,0.49717 0.543444,0.49718 0.367778,0.51882 0.367779,0.51883 0.233984,0.46566 0.233984,0.46567 0.198451,0.58334 0.198451,0.58335 0.128015,0.67484 0.128015,0.67484 v 3.83606 3.83605 l 0.05139,0.13393 0.05139,0.13392 h 1.631574 1.631575 l 0.09576,0.11539 0.09576,0.11539 -0.0219,4.64711 -0.0219,4.64711 -3.471333,0.013 z" />
      <path
         id="path2499"
         style="fill:#FF212D;stroke-width:0.0846667"
         d="m 147.55375,172.04436 -19.51567,0.0113 -0.63376,-0.0742 -0.63375,-0.0742 -0.63625,-0.21301 -0.63624,-0.21299 -0.48612,-0.27416 -0.48612,-0.27415 -0.44521,-0.37566 -0.44522,-0.37568 -0.40595,-0.47099 -0.40595,-0.471 -0.37067,-0.762 -0.37067,-0.762 -0.15471,-0.67733 -0.15471,-0.67734 0.002,-3.00566 0.002,-3.00567 0.14805,-0.84667 0.14804,-0.84666 0.21691,-0.80434 0.21692,-0.80433 0.37933,-0.93133 0.37932,-0.93134 0.30442,-0.55033 0.30443,-0.55033 0.42391,-0.635 0.42391,-0.635 0.48207,-0.59267 0.48207,-0.59267 0.8803,-0.84666 0.88031,-0.84667 0.88793,-0.59974 0.88793,-0.59973 0.635,-0.34406 0.635,-0.34406 0.97366,-0.38129 0.97367,-0.38128 0.89069,-0.21767 0.89068,-0.21768 0.59098,-0.0883 0.59098,-0.0883 1.31234,-0.052 1.31233,-0.052 0.889,0.38082 0.889,0.38083 0.635,0.22872 0.635,0.22874 1.12362,0.28562 1.12362,0.28562 0.95071,0.14897 0.95072,0.14896 1.905,0.001 1.905,10e-4 0.97501,-0.14574 0.975,-0.14573 1.14167,-0.29021 1.14165,-0.2902 0.635,-0.22874 0.635,-0.22872 0.86705,-0.36988 0.86706,-0.36987 h 0.7904 0.79041 l 0.92487,0.0907 0.92488,0.0907 0.89515,0.19964 0.89515,0.19963 0.54419,0.18132 0.54417,0.18133 0.71318,0.30419 0.71317,0.3042 0.703,0.38846 0.70301,0.38847 0.76374,0.53905 0.76375,0.53905 0.75913,0.71462 0.75912,0.7146 0.54237,0.65114 0.54238,0.65115 0.48305,0.71967 0.48306,0.71966 0.49254,1.016 0.49255,1.016 0.25913,0.80434 0.25913,0.80433 0.12638,0.508 0.12639,0.508 0.14926,0.97367 0.14927,0.97366 -5e-5,2.87867 -4e-5,2.87867 -0.18576,0.67733 -0.18576,0.67733 -0.35796,0.71967 -0.35794,0.71967 -0.80738,0.80738 -0.80738,0.80738 -0.71967,0.35795 -0.71967,0.35795 -0.67733,0.18912 -0.67733,0.18911 -19.51567,0.0113 z m -34.22948,-12.67907 -4.42085,-0.0106 -0.42334,-0.0642 -0.42333,-0.0642 -0.44714,-0.17208 -0.44715,-0.1721 -0.42332,-0.27164 -0.42333,-0.27165 -0.38121,-0.43398 -0.38122,-0.43399 -0.24568,-0.48941 -0.24569,-0.48942 -0.0957,-0.46099 -0.0957,-0.46098 0.0304,-3.15594 0.0304,-3.15592 0.22972,-0.74408 0.22973,-0.74407 0.30725,-0.6106 0.30726,-0.61059 0.32671,-0.4815 0.32672,-0.48152 0.48191,-0.52051 0.4819,-0.52052 0.47106,-0.35975 0.47105,-0.35976 0.59267,-0.346 0.59266,-0.34601 0.762,-0.26588 0.762,-0.26589 0.80434,-0.12133 0.80433,-0.12133 4.68889,-5.1e-4 4.6889,-5e-4 0.85557,0.13602 0.85557,0.13602 0.59386,0.21314 0.59387,0.21315 0.42334,0.21288 0.42333,0.2129 0.49991,0.33898 0.49992,0.33898 0.32558,0.29415 0.32559,0.29415 v 0.0969 0.0969 l -0.68975,0.41336 -0.68975,0.41336 -0.85542,0.64372 -0.85541,0.64371 -0.96313,0.9317 -0.96312,0.93169 -0.68197,0.84667 -0.68196,0.84667 -0.44722,0.68542 -0.44722,0.68542 -0.50668,0.96558 -0.50667,0.96558 -0.39284,1.016 -0.39284,1.016 -0.28035,1.10066 -0.28035,1.10067 -0.0607,0.46567 -0.0607,0.46566 -0.0779,0.14817 -0.0779,0.14817 -4.42085,-0.0106 z m 67.9558,-0.008 -4.67001,0.028 -0.0689,-0.11041 -0.0689,-0.1104 -0.2328,-1.15418 -0.2328,-1.15418 -0.32998,-1.00482 -0.32997,-1.00482 -0.42151,-0.94459 -0.42151,-0.94458 -0.57664,-0.96042 -0.57663,-0.96041 -0.34484,-0.46567 -0.34484,-0.46567 -0.60373,-0.71966 -0.60374,-0.71967 -0.84764,-0.81308 -0.84764,-0.81308 -0.87863,-0.65537 -0.87862,-0.65536 -0.65617,-0.39333 -0.65617,-0.39332 v -0.13062 -0.13063 l 0.61384,-0.48507 0.61383,-0.48507 0.66038,-0.34418 0.66037,-0.34417 0.60963,-0.20897 0.60962,-0.20895 0.80433,-0.12274 0.80434,-0.12273 4.699,9e-5 4.699,8e-5 0.762,0.11538 0.762,0.11538 0.79912,0.26875 0.79913,0.26876 0.67194,0.39843 0.67194,0.39844 0.61394,0.52272 0.61395,0.52272 0.56164,0.74728 0.56165,0.74728 0.33656,0.68761 0.33657,0.68762 0.2273,0.79404 0.22728,0.79406 0.0357,3.048 0.0357,3.048 -0.10056,0.46567 -0.10056,0.46566 -0.24712,0.508 -0.24713,0.508 -0.33873,0.3961 -0.33874,0.39609 -0.51508,0.34395 -0.51507,0.34396 -0.56303,0.189 -0.56303,0.189 -4.67001,0.028 z m -33.76866,-16.96134 -1.27,0.0304 -0.33866,-0.035 -0.33867,-0.035 -0.80433,-0.12933 -0.80434,-0.12932 -0.80035,-0.21576 -0.80036,-0.21576 -1.01998,-0.43884 -1.01997,-0.43884 -0.69311,-0.41343 -0.69311,-0.41343 -0.62374,-0.4739 -0.62374,-0.47389 -0.40564,-0.33867 -0.40565,-0.33866 -0.71577,-0.80434 -0.71577,-0.80433 -0.5054,-0.73622 -0.50539,-0.73622 -0.50206,-0.99945 -0.50205,-0.99944 -0.29592,-0.889 -0.29592,-0.889 -0.17319,-0.84667 -0.17319,-0.84667 -0.10003,-1.17743 -0.10003,-1.17743 0.10078,-1.06623 0.10078,-1.06624 0.16525,-0.78489 0.16524,-0.7849 0.25939,-0.77421 0.25938,-0.77421 0.25823,-0.58835 0.25823,-0.58835 0.46979,-0.81588 0.4698,-0.81588 0.57762,-0.77043 0.57763,-0.77043 0.91998,-0.88057 0.91999,-0.88057 0.79814,-0.57208 0.79814,-0.57208 1.18534,-0.59133 1.18533,-0.59134 0.762,-0.2453 0.762,-0.2453 0.84667,-0.17318 0.84666,-0.17317 1.10597,-0.0917 1.10596,-0.0917 1.05304,0.0882 1.05303,0.0882 0.67734,0.13292 0.67733,0.13292 0.6204,0.16827 0.6204,0.16826 0.70465,0.28407 0.70464,0.28407 0.62229,0.31238 0.62229,0.31238 0.59266,0.37988 0.59267,0.37988 0.76796,0.62123 0.76795,0.62124 0.62905,0.66054 0.62904,0.66053 0.47285,0.63479 0.47284,0.6348 0.40952,0.67733 0.40952,0.67733 0.32047,0.69211 0.32047,0.6921 0.29335,0.87681 0.29336,0.87681 0.17353,0.89921 0.17353,0.8992 0.0905,1.13275 0.0905,1.13275 -0.0911,0.97113 -0.0912,0.97113 -0.16631,0.81825 -0.16631,0.81825 -0.25745,0.79042 -0.25746,0.79042 -0.46703,0.97366 -0.46702,0.97367 -0.62435,0.93133 -0.62434,0.93134 -0.57909,0.63776 -0.5791,0.63775 -0.52015,0.4782 -0.52016,0.4782 -0.62096,0.45252 -0.62097,0.45252 -0.34792,0.22401 -0.34793,0.22401 -0.92207,0.46156 -0.92208,0.46157 -0.614,0.22069 -0.61399,0.22069 -0.69834,0.17964 -0.69833,0.17965 -0.71967,0.12215 -0.71967,0.12216 z m -29.718,-4.22722 -1.10066,0.0379 -0.762,-0.15949 -0.762,-0.15948 -0.556,-0.21044 -0.556,-0.21044 -0.37533,-0.19088 -0.37534,-0.19088 -0.49759,-0.33721 -0.49758,-0.33721 -0.61512,-0.5843 -0.61512,-0.5843 -0.43885,-0.63482 -0.43884,-0.63481 -0.33502,-0.7149 -0.33501,-0.7149 -0.17,-0.65903 -0.17,-0.65902 -0.0695,-0.93134 -0.0695,-0.93133 0.0758,-0.635 0.0758,-0.635 0.17029,-0.635 0.17029,-0.635 0.37532,-0.77553 0.37532,-0.77553 0.51351,-0.68148 0.51351,-0.68148 0.48315,-0.4371 0.48315,-0.4371 0.57911,-0.37975 0.57911,-0.37975 0.60623,-0.27842 0.60622,-0.27843 0.635,-0.17479 0.635,-0.17478 0.8255,-0.0827 0.8255,-0.0827 0.80598,0.0825 0.80598,0.0825 0.70858,0.20533 0.70859,0.20535 0.48921,0.21635 0.48921,0.21635 0.68882,0.45832 0.68882,0.45833 0.65517,0.68576 0.65517,0.68575 0.38571,0.59625 0.38571,0.59625 0.25586,0.56428 0.25585,0.56429 0.21364,0.8053 0.21365,0.80531 0.007,1.27 0.007,1.27 -0.19014,0.762 -0.19015,0.762 -0.45778,0.93133 -0.45777,0.93133 -0.54072,0.67734 -0.54072,0.67733 -0.59237,0.48345 -0.59237,0.48345 -0.49147,0.29595 -0.49148,0.29595 -0.64624,0.27141 -0.64623,0.27141 -0.635,0.15871 -0.635,0.15871 -1.10067,0.0379 z m 59.182,0.005 -1.10066,0.0343 -0.79999,-0.17313 -0.79999,-0.17314 -0.63935,-0.26395 -0.63934,-0.26395 -0.55033,-0.33104 -0.55034,-0.33104 -0.44759,-0.34448 -0.44761,-0.34448 -0.4348,-0.47414 -0.4348,-0.47414 -0.45498,-0.69628 -0.45499,-0.69627 -0.25616,-0.61606 -0.25616,-0.61606 -0.16832,-0.635 -0.16833,-0.635 -0.0459,-1.143 -0.0459,-1.143 0.16893,-0.81438 0.16893,-0.81437 0.29854,-0.73228 0.29855,-0.73228 0.47113,-0.70807 0.47114,-0.70807 0.61518,-0.6171 0.61518,-0.61711 0.69838,-0.45659 0.69837,-0.45659 0.52929,-0.23669 0.5293,-0.2367 0.67767,-0.17992 0.67768,-0.17992 0.78141,-0.0808 0.78141,-0.0808 0.82691,0.0828 0.82692,0.0828 0.635,0.17478 0.635,0.17479 0.61872,0.28421 0.61874,0.2842 0.5666,0.37764 0.5666,0.37763 0.51273,0.49345 0.51271,0.49344 0.35666,0.45406 0.35667,0.45406 0.30309,0.51715 0.3031,0.51716 0.23378,0.59512 0.23378,0.59512 0.16008,0.635 0.16007,0.635 v 1.31233 1.31233 l -0.16031,0.635 -0.1603,0.635 -0.31132,0.72774 -0.31132,0.72773 -0.41273,0.62693 -0.41273,0.62694 -0.63964,0.64143 -0.63965,0.64144 -0.53995,0.36387 -0.53996,0.36388 -0.77606,0.36763 -0.77607,0.36762 -0.71598,0.17951 -0.71598,0.17951 z" />
      <path
         style="fill:#011E2F;stroke-width:0.0846667"
         d="M 147.21508,227.10919 H 62.548416 V 142.44252 57.775856 h 84.666664 84.66667 v 84.666664 84.66667 z m 0.33867,-55.06483 19.51566,-0.0113 0.67734,-0.18911 0.67733,-0.18912 0.71967,-0.35795 0.71966,-0.35795 0.80739,-0.80738 0.80738,-0.80738 0.35794,-0.71967 0.35796,-0.71967 0.18575,-0.67733 0.18576,-0.67733 5e-5,-2.87867 5e-5,-2.87867 -0.14927,-0.97366 -0.14926,-0.97367 -0.12639,-0.508 -0.12638,-0.508 -0.25913,-0.80433 -0.25913,-0.80434 -0.49255,-1.016 -0.49254,-1.016 -0.48306,-0.71966 -0.48306,-0.71967 -0.54237,-0.65115 -0.54238,-0.65114 -0.75912,-0.7146 -0.75912,-0.71462 -0.76375,-0.53905 -0.76375,-0.53905 -0.703,-0.38847 -0.703,-0.38846 -0.71318,-0.3042 -0.71317,-0.30419 -0.54418,-0.18133 -0.54418,-0.18132 -0.89515,-0.19963 -0.89516,-0.19964 -0.92487,-0.0907 -0.92487,-0.0907 h -0.79041 -0.7904 l -0.86706,0.36987 -0.86705,0.36988 -0.635,0.22872 -0.635,0.22874 -1.14166,0.2902 -1.14166,0.29021 -0.975,0.14573 -0.97502,0.14574 -1.905,-0.001 -1.905,-10e-4 -0.95071,-0.14896 -0.95072,-0.14897 -1.12361,-0.28562 -1.12362,-0.28562 -0.635,-0.22874 -0.635,-0.22872 -0.889,-0.38083 -0.889,-0.38082 -1.31234,0.052 -1.31233,0.052 -0.59098,0.0883 -0.59098,0.0883 -0.89069,0.21768 -0.89068,0.21767 -0.97367,0.38128 -0.97367,0.38129 -0.635,0.34406 -0.635,0.34406 -0.88792,0.59973 -0.88793,0.59974 -0.88031,0.84667 -0.8803,0.84666 -0.48207,0.59267 -0.48207,0.59267 -0.42391,0.635 -0.42391,0.635 -0.30443,0.55033 -0.30442,0.55033 -0.37933,0.93134 -0.37932,0.93133 -0.21692,0.80433 -0.21692,0.80434 -0.14804,0.84666 -0.14804,0.84667 -0.002,3.00567 -0.002,3.00566 0.15471,0.67734 0.15471,0.67733 0.37067,0.762 0.37067,0.762 0.40595,0.471 0.40595,0.47099 0.44522,0.37568 0.44521,0.37566 0.48612,0.27415 0.48612,0.27416 0.63624,0.21299 0.63624,0.21301 0.63376,0.0742 0.63376,0.0742 19.51567,-0.0113 z m 54.12246,-8.09674 h 2.7312 l 0.762,-0.093 0.762,-0.093 0.80434,-0.20316 0.80433,-0.20317 0.67733,-0.32648 0.67734,-0.32649 0.52507,-0.3972 0.52506,-0.39719 0.39791,-0.52507 0.3979,-0.52507 0.28042,-0.60156 0.28041,-0.60155 0.17156,-0.62612 0.17155,-0.62611 0.12739,-0.84666 0.12739,-0.84667 0.002,-4.318 0.002,-4.318 0.0772,-0.73346 0.0772,-0.73346 0.22105,-0.46727 0.22106,-0.46727 0.31022,-0.27238 0.31021,-0.27237 0.43163,-0.19761 0.43163,-0.1976 0.58824,-0.065 0.58823,-0.0649 v -4.78367 -4.78367 l -0.508,-0.0491 -0.508,-0.0491 -0.44198,-0.14732 -0.44198,-0.14732 -0.41435,-0.37254 -0.41436,-0.37254 -0.18503,-0.43011 -0.18502,-0.43011 -0.0798,-0.69422 -0.0798,-0.69421 -8.5e-4,-4.42717 -8.4e-4,-4.42717 -0.0908,-0.81433 -0.0908,-0.81433 -0.19679,-0.77575 -0.19678,-0.77574 -0.29746,-0.59068 -0.29747,-0.59069 -0.34304,-0.43398 -0.34304,-0.43398 -0.5324,-0.37728 -0.53241,-0.37727 -0.34472,-0.17366 -0.34471,-0.17365 -0.54429,-0.18374 -0.54428,-0.18374 -0.80434,-0.17171 -0.80433,-0.1717 -3.32388,-0.0391 -3.32387,-0.0391 0.0219,4.77003 0.0219,4.77003 1.45181,0.0231 1.45182,0.0231 0.0556,0.22159 0.0556,0.22159 -0.0111,4.15795 -0.0111,4.15794 0.13618,0.508 0.13619,0.508 0.28711,0.60885 0.28712,0.60885 0.35262,0.51926 0.35262,0.51926 0.56331,0.59713 0.5633,0.59713 0.46645,0.35709 0.46645,0.35708 0.35918,0.20368 0.35918,0.20367 8.5e-4,0.0985 8.5e-4,0.0985 -0.52917,0.2976 -0.52917,0.2976 -0.55853,0.46285 -0.55853,0.46285 -0.53403,0.70733 -0.53404,0.70734 -0.36747,0.762 -0.36749,0.762 -0.17609,0.67733 -0.17608,0.67734 0.0103,4.16031 0.0103,4.1603 -0.055,0.21923 -0.055,0.21924 -1.45182,0.0231 -1.45181,0.0231 -0.0219,4.7625 -0.0219,4.7625 h 2.73121 z m -109.367461,-0.45248 3.471333,-0.0129 0.0219,-4.64712 0.0219,-4.64711 -0.09576,-0.11539 -0.09576,-0.11538 h -1.631575 -1.631574 l -0.05139,-0.13393 -0.05139,-0.13392 v -3.83606 -3.83606 l -0.128015,-0.67483 -0.128015,-0.67485 -0.198451,-0.58334 -0.198451,-0.58335 -0.233984,-0.46566 -0.233984,-0.46567 -0.367778,-0.51882 -0.367779,-0.51882 -0.543444,-0.49718 -0.543443,-0.49718 -0.55955,-0.29633 -0.559549,-0.29634 0.02686,-0.0829 0.02686,-0.0829 0.501529,-0.28926 0.501528,-0.28927 0.677333,-0.69213 0.677333,-0.69214 0.392155,-0.67135 0.392155,-0.67135 0.300251,-0.762 0.30025,-0.762 0.133095,-0.6526 0.133094,-0.65259 v -4.06065 -4.06064 l 0.05139,-0.13393 0.05139,-0.13392 h 1.631574 1.631575 l 0.09576,-0.11539 0.09576,-0.11538 -0.0219,-4.64712 -0.0219,-4.64711 -3.471333,0.003 -3.471334,0.003 -0.778079,0.18278 -0.77808,0.18278 -0.654992,0.26228 -0.65499,0.26227 -0.568176,0.37772 -0.568174,0.37772 -0.50547,0.54035 -0.505471,0.54035 -0.31404,0.51696 -0.314039,0.51697 -0.247195,0.67733 -0.247193,0.67733 -0.126493,0.57239 -0.126493,0.5724 -0.08639,0.71744 -0.08639,0.71745 -0.0026,4.23555 -0.0026,4.23556 -0.08236,0.63477 -0.08236,0.63477 -0.216114,0.44172 -0.216113,0.44172 -0.382975,0.3371 -0.382976,0.33711 -0.435888,0.14478 -0.435889,0.14478 -0.467548,0.0503 -0.467545,0.0503 v 4.78367 4.78367 l 0.532254,0.0587 0.532255,0.0587 0.445275,0.20386 0.445276,0.20385 0.310217,0.27237 0.310217,0.27238 0.219183,0.46331 0.219185,0.46332 0.07993,0.69508 0.07993,0.69508 6.77e-4,3.99617 6.77e-4,3.99616 0.126933,0.9683 0.126934,0.9683 0.216286,0.74636 0.216286,0.74636 0.336816,0.6474 0.336817,0.6474 0.380339,0.44559 0.380339,0.44557 0.400125,0.33442 0.400125,0.33442 0.677334,0.32767 0.677333,0.32768 0.50131,0.14315 0.501308,0.14315 0.641692,0.10857 0.64169,0.10858 3.471333,-0.013 z m 21.015521,-4.12985 4.42085,0.0106 0.0779,-0.14816 0.0779,-0.14817 0.0607,-0.46567 0.0607,-0.46566 0.28035,-1.10067 0.28035,-1.10067 0.39284,-1.016 0.39284,-1.016 0.50667,-0.96558 0.50668,-0.96557 0.44722,-0.68543 0.44722,-0.68542 0.68196,-0.84666 0.68197,-0.84667 0.96312,-0.9317 0.96313,-0.93169 0.85541,-0.64372 0.85542,-0.64372 0.68975,-0.41335 0.68975,-0.41336 v -0.0969 -0.0969 l -0.32559,-0.29415 -0.32558,-0.29414 -0.49992,-0.33898 -0.49991,-0.33898 -0.42333,-0.2129 -0.42334,-0.21289 -0.59387,-0.21314 -0.59386,-0.21314 -0.85557,-0.13602 -0.85557,-0.13603 -4.6889,5.1e-4 -4.68889,5.1e-4 -0.80433,0.12133 -0.80434,0.12133 -0.762,0.26588 -0.762,0.26589 -0.59266,0.34601 -0.59267,0.346 -0.47105,0.35975 -0.47106,0.35976 -0.4819,0.52051 -0.48191,0.52052 -0.32672,0.48151 -0.32671,0.48151 -0.30726,0.61059 -0.30725,0.61059 -0.22973,0.74408 -0.22972,0.74408 -0.0304,3.15592 -0.0304,3.15593 0.0957,0.46099 0.0957,0.46099 0.24569,0.48942 0.24568,0.48941 0.38122,0.43399 0.38121,0.43398 0.42333,0.27165 0.42332,0.27164 0.44715,0.17209 0.44714,0.17209 0.42333,0.0642 0.42334,0.0642 4.42085,0.0106 z m 67.9558,-0.008 4.67001,-0.028 0.56303,-0.189 0.56303,-0.189 0.51507,-0.34396 0.51508,-0.34395 0.33874,-0.39609 0.33873,-0.3961 0.24713,-0.508 0.24712,-0.508 0.10056,-0.46566 0.10056,-0.46567 -0.0357,-3.048 -0.0357,-3.048 -0.22728,-0.79406 -0.2273,-0.79404 -0.33657,-0.68762 -0.33656,-0.68761 -0.56165,-0.74728 -0.56164,-0.74729 -0.61395,-0.52271 -0.61394,-0.52272 -0.67194,-0.39844 -0.67194,-0.39843 -0.79913,-0.26876 -0.79912,-0.26875 -0.762,-0.11538 -0.762,-0.11538 -4.699,-8e-5 -4.699,-9e-5 -0.80434,0.12273 -0.80433,0.12274 -0.60962,0.20895 -0.60963,0.20897 -0.66037,0.34417 -0.66038,0.34418 -0.61383,0.48507 -0.61384,0.48506 v 0.13064 0.13062 l 0.65617,0.39332 0.65617,0.39333 0.87862,0.65536 0.87863,0.65537 0.84764,0.81308 0.84764,0.81308 0.60374,0.71967 0.60373,0.71966 0.34484,0.46567 0.34484,0.46567 0.57663,0.96041 0.57664,0.96042 0.42151,0.94458 0.42151,0.94459 0.32997,1.00482 0.32998,1.00482 0.2328,1.15418 0.2328,1.15418 0.0689,0.1104 0.0689,0.11041 4.67001,-0.028 z m -33.76866,-16.96134 1.27,-0.0304 0.71967,-0.12216 0.71967,-0.12215 0.69833,-0.17965 0.69834,-0.17964 0.61399,-0.22069 0.614,-0.22069 0.92208,-0.46157 0.92207,-0.46156 0.34793,-0.22401 0.34792,-0.22401 0.62097,-0.45252 0.62096,-0.45252 0.52016,-0.4782 0.52015,-0.4782 0.5791,-0.63775 0.57909,-0.63776 0.62434,-0.93134 0.62435,-0.93133 0.46702,-0.97367 0.46703,-0.97366 0.25746,-0.79042 0.25745,-0.79042 0.16631,-0.81825 0.16631,-0.81825 0.0912,-0.97113 0.0911,-0.97113 -0.0905,-1.13275 -0.0905,-1.13275 -0.17353,-0.8992 -0.17353,-0.89921 -0.29336,-0.87681 -0.29335,-0.87681 -0.32047,-0.6921 -0.32047,-0.69211 -0.40952,-0.67733 -0.40952,-0.67733 -0.47284,-0.6348 -0.47285,-0.63479 -0.62904,-0.66053 -0.62905,-0.66054 -0.76795,-0.62124 -0.76796,-0.62123 -0.59267,-0.37988 -0.59266,-0.37988 -0.62229,-0.31238 -0.62229,-0.31238 -0.70464,-0.28407 -0.70465,-0.28407 -0.6204,-0.16826 -0.6204,-0.16827 -0.67733,-0.13292 -0.67734,-0.13292 -1.05303,-0.0882 -1.05304,-0.0882 -1.10596,0.0917 -1.10597,0.0917 -0.84666,0.17317 -0.84667,0.17318 -0.762,0.2453 -0.762,0.2453 -1.18533,0.59134 -1.18534,0.59133 -0.79814,0.57208 -0.79814,0.57208 -0.91999,0.88057 -0.91998,0.88057 -0.57763,0.77043 -0.57762,0.77043 -0.4698,0.81588 -0.46979,0.81588 -0.25823,0.58835 -0.25823,0.58835 -0.25938,0.77421 -0.25939,0.77421 -0.16524,0.7849 -0.16525,0.78489 -0.10078,1.06624 -0.10078,1.06623 0.10003,1.17743 0.10003,1.17743 0.17319,0.84667 0.17319,0.84667 0.29592,0.889 0.29592,0.889 0.50205,0.99944 0.50206,0.99945 0.50539,0.73622 0.5054,0.73622 0.71577,0.80433 0.71577,0.80434 0.40565,0.33866 0.40564,0.33867 0.62374,0.47389 0.62374,0.4739 0.69311,0.41343 0.69311,0.41343 1.01997,0.43884 1.01998,0.43884 0.80036,0.21576 0.80035,0.21576 0.80434,0.12932 0.80433,0.12933 0.33867,0.035 0.33866,0.035 z m -29.718,-4.22722 1.10067,-0.0379 0.635,-0.15871 0.635,-0.15871 0.64624,-0.27141 0.64623,-0.27141 0.49148,-0.29595 0.49148,-0.29595 0.59237,-0.48345 0.59236,-0.48345 0.54072,-0.67733 0.54072,-0.67734 0.45778,-0.93133 0.45777,-0.93133 0.19015,-0.762 0.19014,-0.762 -0.007,-1.27 -0.007,-1.27 -0.21364,-0.80531 -0.21364,-0.8053 -0.25586,-0.56429 -0.25586,-0.56428 -0.38571,-0.59625 -0.38571,-0.59625 -0.65517,-0.68575 -0.65517,-0.68576 -0.68882,-0.45833 -0.68882,-0.45832 -0.48921,-0.21635 -0.48921,-0.21635 -0.70858,-0.20535 -0.70859,-0.20533 -0.80598,-0.0825 -0.80598,-0.0825 -0.8255,0.0827 -0.8255,0.0827 -0.635,0.17478 -0.635,0.17479 -0.60622,0.27843 -0.60622,0.27842 -0.57911,0.37975 -0.57911,0.37975 -0.48315,0.4371 -0.48315,0.4371 -0.51351,0.68148 -0.51351,0.68148 -0.37533,0.77553 -0.37532,0.77553 -0.17029,0.635 -0.17028,0.635 -0.0759,0.635 -0.0758,0.635 0.0696,0.93133 0.0695,0.93134 0.17,0.65902 0.16999,0.65903 0.33502,0.7149 0.33501,0.7149 0.43885,0.63481 0.43884,0.63482 0.61512,0.5843 0.61512,0.5843 0.49759,0.33721 0.49759,0.33721 0.37533,0.19088 0.37533,0.19088 0.556,0.21044 0.556,0.21044 0.762,0.15948 0.762,0.15949 1.10067,-0.0379 z m 59.182,0.005 1.10067,-0.0343 0.71598,-0.17951 0.71598,-0.17951 0.77607,-0.36762 0.77606,-0.36763 0.53996,-0.36388 0.53995,-0.36387 0.63965,-0.64144 0.63964,-0.64143 0.41273,-0.62694 0.41273,-0.62693 0.31132,-0.72773 0.31132,-0.72774 0.1603,-0.635 0.16031,-0.635 v -1.31233 -1.31233 l -0.16007,-0.635 -0.16008,-0.635 -0.23378,-0.59512 -0.23378,-0.59512 -0.3031,-0.51716 -0.30309,-0.51715 -0.35667,-0.45406 -0.35666,-0.45406 -0.51271,-0.49344 -0.51273,-0.49345 -0.5666,-0.37763 -0.5666,-0.37764 -0.61874,-0.2842 -0.61872,-0.28421 -0.635,-0.17479 -0.635,-0.17478 -0.82692,-0.0828 -0.82691,-0.0828 -0.78141,0.0808 -0.78141,0.0808 -0.67768,0.17992 -0.67767,0.17992 -0.5293,0.2367 -0.52929,0.23669 -0.69837,0.45659 -0.69838,0.45659 -0.61518,0.61711 -0.61518,0.6171 -0.47114,0.70807 -0.47113,0.70807 -0.29855,0.73228 -0.29854,0.73228 -0.16893,0.81437 -0.16893,0.81438 0.0459,1.143 0.0459,1.143 0.16833,0.635 0.16832,0.635 0.25616,0.61606 0.25616,0.61606 0.45499,0.69627 0.45498,0.69628 0.4348,0.47414 0.4348,0.47414 0.44761,0.34448 0.44759,0.34448 0.55034,0.33104 0.55033,0.33104 0.63934,0.26395 0.63935,0.26395 0.79999,0.17314 0.79999,0.17313 z"
         id="path2497" />
    </g>
  </g>
</svg>
